<svg xmlns="http://www.w3.org/2000/svg" xmlns:xlink="http://www.w3.org/1999/xlink" width="33" zoomAndPan="magnify" viewBox="0 0 24.75 24.75" height="33" preserveAspectRatio="xMidYMid meet" version="1.0"><defs><g/><clipPath id="d33c8db78b"><path d="M 9.8125 13.347656 L 11.3125 13.347656 L 11.3125 14.847656 L 9.8125 14.847656 Z M 9.8125 13.347656 " clip-rule="nonzero"/></clipPath><clipPath id="f059c43519"><path d="M 0.207031 0.0703125 L 24.207031 0.0703125 L 24.207031 24.070312 L 0.207031 24.070312 Z M 0.207031 0.0703125 " clip-rule="nonzero"/></clipPath><clipPath id="c835f29d6d"><path d="M 9.027344 13.578125 L 11.277344 13.578125 L 11.277344 15.828125 L 9.027344 15.828125 Z M 9.027344 13.578125 " clip-rule="nonzero"/></clipPath></defs><g clip-path="url(#d33c8db78b)"><path fill="#ffffff" d="M 11.3125 14.097656 C 11.3125 14.304688 11.238281 14.480469 11.089844 14.628906 C 10.945312 14.773438 10.769531 14.847656 10.5625 14.847656 C 10.355469 14.847656 10.175781 14.773438 10.03125 14.628906 C 9.882812 14.480469 9.8125 14.304688 9.8125 14.097656 C 9.8125 13.890625 9.882812 13.714844 10.03125 13.566406 C 10.175781 13.421875 10.355469 13.347656 10.5625 13.347656 C 10.769531 13.347656 10.945312 13.421875 11.089844 13.566406 C 11.238281 13.714844 11.3125 13.890625 11.3125 14.097656 Z M 11.3125 14.097656 " fill-opacity="1" fill-rule="nonzero"/></g><g clip-path="url(#f059c43519)"><path fill="#14b1ff" d="M 24.207031 12.070312 C 24.207031 12.859375 24.132812 13.636719 23.976562 14.410156 C 23.824219 15.183594 23.597656 15.933594 23.296875 16.660156 C 22.992188 17.390625 22.625 18.082031 22.1875 18.738281 C 21.75 19.390625 21.25 19.996094 20.695312 20.554688 C 20.136719 21.113281 19.53125 21.609375 18.875 22.046875 C 18.21875 22.484375 17.527344 22.855469 16.800781 23.15625 C 16.074219 23.457031 15.324219 23.683594 14.550781 23.839844 C 13.777344 23.992188 12.996094 24.070312 12.207031 24.070312 C 11.421875 24.070312 10.640625 23.992188 9.867188 23.839844 C 9.09375 23.683594 8.34375 23.457031 7.617188 23.15625 C 6.886719 22.855469 6.195312 22.484375 5.542969 22.046875 C 4.886719 21.609375 4.28125 21.113281 3.722656 20.554688 C 3.167969 19.996094 2.667969 19.390625 2.230469 18.738281 C 1.792969 18.082031 1.421875 17.390625 1.121094 16.660156 C 0.820312 15.933594 0.59375 15.183594 0.4375 14.410156 C 0.285156 13.636719 0.207031 12.859375 0.207031 12.070312 C 0.207031 11.28125 0.285156 10.5 0.4375 9.730469 C 0.59375 8.957031 0.820312 8.207031 1.121094 7.476562 C 1.421875 6.75 1.792969 6.058594 2.230469 5.402344 C 2.667969 4.746094 3.167969 4.140625 3.722656 3.585938 C 4.28125 3.027344 4.886719 2.53125 5.542969 2.09375 C 6.195312 1.65625 6.886719 1.285156 7.617188 0.984375 C 8.34375 0.679688 9.09375 0.453125 9.867188 0.300781 C 10.640625 0.148438 11.421875 0.0703125 12.207031 0.0703125 C 12.996094 0.0703125 13.777344 0.148438 14.550781 0.300781 C 15.324219 0.453125 16.074219 0.679688 16.800781 0.984375 C 17.527344 1.285156 18.21875 1.65625 18.875 2.09375 C 19.53125 2.53125 20.136719 3.027344 20.695312 3.585938 C 21.25 4.140625 21.75 4.746094 22.1875 5.402344 C 22.625 6.058594 22.992188 6.75 23.296875 7.476562 C 23.597656 8.207031 23.824219 8.957031 23.976562 9.730469 C 24.132812 10.5 24.207031 11.28125 24.207031 12.070312 Z M 24.207031 12.070312 " fill-opacity="1" fill-rule="nonzero"/></g><g clip-path="url(#c835f29d6d)"><path fill="#ffffff" d="M 11.277344 14.703125 C 11.277344 14.851562 11.25 14.996094 11.191406 15.132812 C 11.132812 15.273438 11.054688 15.394531 10.949219 15.5 C 10.84375 15.605469 10.71875 15.6875 10.582031 15.742188 C 10.445312 15.800781 10.300781 15.828125 10.152344 15.828125 C 10.003906 15.828125 9.859375 15.800781 9.722656 15.742188 C 9.582031 15.6875 9.460938 15.605469 9.355469 15.5 C 9.25 15.394531 9.171875 15.273438 9.113281 15.132812 C 9.054688 14.996094 9.027344 14.851562 9.027344 14.703125 C 9.027344 14.554688 9.054688 14.410156 9.113281 14.273438 C 9.171875 14.136719 9.25 14.011719 9.355469 13.90625 C 9.460938 13.800781 9.582031 13.722656 9.722656 13.664062 C 9.859375 13.605469 10.003906 13.578125 10.152344 13.578125 C 10.300781 13.578125 10.445312 13.605469 10.582031 13.664062 C 10.71875 13.722656 10.84375 13.800781 10.949219 13.90625 C 11.054688 14.011719 11.132812 14.136719 11.191406 14.273438 C 11.25 14.410156 11.277344 14.554688 11.277344 14.703125 Z M 11.277344 14.703125 " fill-opacity="1" fill-rule="nonzero"/></g><g fill="#ffffff" fill-opacity="1"><g transform="translate(9.801664, 15.920474)"><g><path d="M 0.445312 -4.183594 L 0.445312 -4.050781 C 0.445312 -3.816406 0.5625 -3.609375 0.769531 -3.445312 L 2.648438 -1.953125 L 4.523438 -0.457031 C 4.640625 -0.339844 4.820312 -0.28125 5.042969 -0.28125 C 5.261719 -0.28125 5.457031 -0.355469 5.632812 -0.503906 C 5.8125 -0.652344 5.898438 -0.859375 5.898438 -1.109375 C 5.898438 -1.375 5.78125 -1.613281 5.574219 -1.789062 L 4.082031 -2.972656 L 2.601562 -4.15625 L 4.082031 -5.335938 L 5.574219 -6.519531 C 5.78125 -6.683594 5.898438 -6.90625 5.898438 -7.199219 C 5.898438 -7.4375 5.8125 -7.644531 5.632812 -7.792969 C 5.457031 -7.941406 5.261719 -8.027344 5.042969 -8.027344 C 4.820312 -8.027344 4.640625 -7.96875 4.523438 -7.851562 L 0.769531 -4.863281 C 0.546875 -4.6875 0.445312 -4.449219 0.445312 -4.183594 Z M 0.445312 -4.183594 "/></g></g></g></svg>