<svg xmlns="http://www.w3.org/2000/svg" xmlns:xlink="http://www.w3.org/1999/xlink" width="500" zoomAndPan="magnify" viewBox="0 0 375 374.999991" height="500" preserveAspectRatio="xMidYMid meet" version="1.0"><defs><g/><clipPath id="32e6fdaca5"><path d="M 149.695312 204.9375 L 168.445312 204.9375 L 168.445312 223.6875 L 149.695312 223.6875 Z M 149.695312 204.9375 " clip-rule="nonzero"/></clipPath><clipPath id="b9e10c6462"><path d="M 5.394531 5.394531 L 369.894531 5.394531 L 369.894531 369.894531 L 5.394531 369.894531 Z M 5.394531 5.394531 " clip-rule="nonzero"/></clipPath><clipPath id="dfda7f1099"><path d="M 137.910156 208.394531 L 167.910156 208.394531 L 167.910156 238.394531 L 137.910156 238.394531 Z M 137.910156 208.394531 " clip-rule="nonzero"/></clipPath></defs><g clip-path="url(#32e6fdaca5)"><path fill="#ffffff" d="M 168.445312 214.3125 C 168.445312 214.925781 168.382812 215.535156 168.265625 216.140625 C 168.144531 216.742188 167.964844 217.332031 167.730469 217.898438 C 167.496094 218.46875 167.207031 219.007812 166.863281 219.519531 C 166.523438 220.03125 166.132812 220.503906 165.699219 220.941406 C 165.261719 221.375 164.789062 221.765625 164.277344 222.105469 C 163.765625 222.449219 163.226562 222.738281 162.65625 222.972656 C 162.089844 223.207031 161.5 223.386719 160.898438 223.507812 C 160.292969 223.625 159.683594 223.6875 159.070312 223.6875 C 158.453125 223.6875 157.84375 223.625 157.238281 223.507812 C 156.636719 223.386719 156.050781 223.207031 155.480469 222.972656 C 154.914062 222.738281 154.371094 222.449219 153.859375 222.105469 C 153.347656 221.765625 152.875 221.375 152.441406 220.941406 C 152.003906 220.503906 151.617188 220.03125 151.273438 219.519531 C 150.933594 219.007812 150.644531 218.46875 150.40625 217.898438 C 150.171875 217.332031 149.996094 216.742188 149.875 216.140625 C 149.753906 215.535156 149.695312 214.925781 149.695312 214.3125 C 149.695312 213.695312 149.753906 213.085938 149.875 212.480469 C 149.996094 211.878906 150.171875 211.292969 150.40625 210.722656 C 150.644531 210.15625 150.933594 209.613281 151.273438 209.101562 C 151.617188 208.589844 152.003906 208.117188 152.441406 207.683594 C 152.875 207.246094 153.347656 206.859375 153.859375 206.515625 C 154.371094 206.175781 154.914062 205.886719 155.480469 205.648438 C 156.050781 205.414062 156.636719 205.238281 157.238281 205.117188 C 157.84375 204.996094 158.453125 204.9375 159.070312 204.9375 C 159.683594 204.9375 160.292969 204.996094 160.898438 205.117188 C 161.5 205.238281 162.089844 205.414062 162.65625 205.648438 C 163.226562 205.886719 163.765625 206.175781 164.277344 206.515625 C 164.789062 206.859375 165.261719 207.246094 165.699219 207.683594 C 166.132812 208.117188 166.523438 208.589844 166.863281 209.101562 C 167.207031 209.613281 167.496094 210.15625 167.730469 210.722656 C 167.964844 211.292969 168.144531 211.878906 168.265625 212.480469 C 168.382812 213.085938 168.445312 213.695312 168.445312 214.3125 Z M 168.445312 214.3125 " fill-opacity="1" fill-rule="nonzero"/></g><g clip-path="url(#b9e10c6462)"><path fill="#14b1ff" d="M 369.894531 187.644531 C 369.894531 190.625 369.820312 193.605469 369.671875 196.585938 C 369.527344 199.5625 369.308594 202.539062 369.015625 205.507812 C 368.722656 208.472656 368.359375 211.433594 367.921875 214.382812 C 367.480469 217.335938 366.972656 220.273438 366.390625 223.199219 C 365.808594 226.125 365.15625 229.03125 364.429688 231.925781 C 363.707031 234.820312 362.910156 237.691406 362.046875 240.546875 C 361.179688 243.402344 360.242188 246.234375 359.238281 249.039062 C 358.234375 251.847656 357.160156 254.632812 356.019531 257.386719 C 354.878906 260.140625 353.667969 262.867188 352.394531 265.566406 C 351.121094 268.261719 349.777344 270.925781 348.371094 273.554688 C 346.964844 276.183594 345.496094 278.78125 343.964844 281.335938 C 342.429688 283.894531 340.835938 286.414062 339.179688 288.894531 C 337.519531 291.375 335.804688 293.8125 334.027344 296.207031 C 332.25 298.605469 330.414062 300.957031 328.523438 303.261719 C 326.632812 305.566406 324.683594 307.824219 322.679688 310.035156 C 320.679688 312.246094 318.621094 314.402344 316.511719 316.511719 C 314.402344 318.621094 312.246094 320.679688 310.035156 322.679688 C 307.824219 324.683594 305.566406 326.632812 303.261719 328.523438 C 300.957031 330.414062 298.605469 332.25 296.207031 334.027344 C 293.8125 335.804688 291.375 337.519531 288.894531 339.179688 C 286.414062 340.835938 283.894531 342.429688 281.335938 343.964844 C 278.78125 345.496094 276.183594 346.964844 273.554688 348.371094 C 270.925781 349.777344 268.261719 351.121094 265.566406 352.394531 C 262.867188 353.667969 260.140625 354.878906 257.386719 356.019531 C 254.632812 357.160156 251.847656 358.234375 249.039062 359.238281 C 246.234375 360.242188 243.402344 361.179688 240.546875 362.046875 C 237.691406 362.910156 234.820312 363.707031 231.925781 364.429688 C 229.03125 365.15625 226.125 365.808594 223.199219 366.390625 C 220.273438 366.972656 217.335938 367.480469 214.382812 367.921875 C 211.433594 368.359375 208.472656 368.722656 205.507812 369.015625 C 202.539062 369.308594 199.5625 369.527344 196.585938 369.671875 C 193.605469 369.820312 190.625 369.894531 187.644531 369.894531 C 184.660156 369.894531 181.679688 369.820312 178.699219 369.671875 C 175.722656 369.527344 172.746094 369.308594 169.777344 369.015625 C 166.8125 368.722656 163.851562 368.359375 160.902344 367.921875 C 157.949219 367.480469 155.011719 366.972656 152.085938 366.390625 C 149.160156 365.808594 146.253906 365.15625 143.359375 364.429688 C 140.464844 363.707031 137.59375 362.910156 134.738281 362.046875 C 131.882812 361.179688 129.054688 360.242188 126.246094 359.238281 C 123.4375 358.234375 120.652344 357.160156 117.898438 356.019531 C 115.144531 354.878906 112.417969 353.667969 109.71875 352.394531 C 107.023438 351.121094 104.359375 349.777344 101.730469 348.371094 C 99.101562 346.964844 96.503906 345.496094 93.949219 343.964844 C 91.390625 342.429688 88.871094 340.835938 86.390625 339.179688 C 83.910156 337.519531 81.472656 335.804688 79.078125 334.027344 C 76.679688 332.25 74.332031 330.414062 72.023438 328.523438 C 69.71875 326.632812 67.460938 324.683594 65.25 322.679688 C 63.039062 320.679688 60.882812 318.621094 58.773438 316.511719 C 56.664062 314.402344 54.605469 312.246094 52.605469 310.035156 C 50.601562 307.824219 48.652344 305.566406 46.761719 303.261719 C 44.871094 300.957031 43.035156 298.605469 41.257812 296.207031 C 39.480469 293.8125 37.765625 291.375 36.105469 288.894531 C 34.449219 286.414062 32.855469 283.894531 31.320312 281.335938 C 29.789062 278.78125 28.320312 276.183594 26.914062 273.554688 C 25.507812 270.925781 24.164062 268.261719 22.890625 265.566406 C 21.617188 262.867188 20.40625 260.140625 19.265625 257.386719 C 18.125 254.632812 17.050781 251.847656 16.046875 249.039062 C 15.042969 246.234375 14.105469 243.402344 13.242188 240.546875 C 12.375 237.691406 11.578125 234.820312 10.855469 231.925781 C 10.128906 229.03125 9.476562 226.125 8.894531 223.199219 C 8.3125 220.273438 7.804688 217.335938 7.363281 214.382812 C 6.925781 211.433594 6.5625 208.472656 6.269531 205.507812 C 5.976562 202.539062 5.757812 199.5625 5.613281 196.585938 C 5.464844 193.605469 5.394531 190.625 5.394531 187.644531 C 5.394531 184.660156 5.464844 181.679688 5.613281 178.699219 C 5.757812 175.722656 5.976562 172.746094 6.269531 169.777344 C 6.5625 166.8125 6.925781 163.851562 7.363281 160.902344 C 7.804688 157.949219 8.3125 155.011719 8.894531 152.085938 C 9.476562 149.160156 10.128906 146.253906 10.855469 143.359375 C 11.578125 140.464844 12.375 137.59375 13.242188 134.738281 C 14.105469 131.882812 15.042969 129.054688 16.046875 126.246094 C 17.050781 123.4375 18.125 120.652344 19.265625 117.898438 C 20.40625 115.144531 21.617188 112.417969 22.890625 109.722656 C 24.164062 107.023438 25.507812 104.359375 26.914062 101.730469 C 28.320312 99.101562 29.789062 96.503906 31.320312 93.949219 C 32.855469 91.390625 34.449219 88.871094 36.105469 86.390625 C 37.765625 83.910156 39.480469 81.472656 41.257812 79.078125 C 43.035156 76.679688 44.871094 74.332031 46.761719 72.023438 C 48.652344 69.71875 50.601562 67.460938 52.605469 65.25 C 54.605469 63.039062 56.664062 60.882812 58.773438 58.773438 C 60.882812 56.664062 63.039062 54.605469 65.25 52.605469 C 67.460938 50.601562 69.71875 48.652344 72.023438 46.761719 C 74.332031 44.871094 76.679688 43.035156 79.078125 41.257812 C 81.472656 39.480469 83.910156 37.765625 86.390625 36.105469 C 88.871094 34.449219 91.390625 32.855469 93.949219 31.320312 C 96.503906 29.789062 99.101562 28.320312 101.730469 26.914062 C 104.359375 25.507812 107.023438 24.164062 109.71875 22.890625 C 112.417969 21.617188 115.144531 20.40625 117.898438 19.265625 C 120.652344 18.125 123.4375 17.050781 126.246094 16.046875 C 129.054688 15.042969 131.882812 14.105469 134.738281 13.242188 C 137.59375 12.375 140.464844 11.578125 143.359375 10.855469 C 146.253906 10.128906 149.160156 9.476562 152.085938 8.894531 C 155.011719 8.3125 157.949219 7.804688 160.902344 7.363281 C 163.851562 6.925781 166.8125 6.5625 169.777344 6.269531 C 172.746094 5.976562 175.722656 5.757812 178.699219 5.613281 C 181.679688 5.464844 184.660156 5.394531 187.644531 5.394531 C 190.625 5.394531 193.605469 5.464844 196.585938 5.613281 C 199.5625 5.757812 202.539062 5.976562 205.507812 6.269531 C 208.472656 6.5625 211.433594 6.925781 214.382812 7.363281 C 217.335938 7.804688 220.273438 8.3125 223.199219 8.894531 C 226.125 9.476562 229.03125 10.128906 231.925781 10.855469 C 234.820312 11.578125 237.691406 12.375 240.546875 13.242188 C 243.402344 14.105469 246.234375 15.042969 249.039062 16.046875 C 251.847656 17.050781 254.632812 18.125 257.386719 19.265625 C 260.140625 20.40625 262.867188 21.617188 265.566406 22.890625 C 268.261719 24.164062 270.925781 25.507812 273.554688 26.914062 C 276.183594 28.320312 278.78125 29.789062 281.335938 31.320312 C 283.894531 32.855469 286.414062 34.449219 288.894531 36.105469 C 291.375 37.765625 293.8125 39.480469 296.207031 41.257812 C 298.605469 43.035156 300.957031 44.871094 303.261719 46.761719 C 305.566406 48.652344 307.824219 50.601562 310.035156 52.605469 C 312.246094 54.605469 314.402344 56.664062 316.511719 58.773438 C 318.621094 60.882812 320.679688 63.039062 322.679688 65.25 C 324.683594 67.460938 326.632812 69.71875 328.523438 72.023438 C 330.414062 74.332031 332.25 76.679688 334.027344 79.078125 C 335.804688 81.472656 337.519531 83.910156 339.179688 86.390625 C 340.835938 88.871094 342.429688 91.390625 343.964844 93.949219 C 345.496094 96.503906 346.964844 99.101562 348.371094 101.730469 C 349.777344 104.359375 351.121094 107.023438 352.394531 109.722656 C 353.667969 112.417969 354.878906 115.144531 356.019531 117.898438 C 357.160156 120.652344 358.234375 123.4375 359.238281 126.246094 C 360.242188 129.054688 361.179688 131.882812 362.046875 134.738281 C 362.910156 137.59375 363.707031 140.464844 364.429688 143.359375 C 365.15625 146.253906 365.808594 149.160156 366.390625 152.085938 C 366.972656 155.011719 367.480469 157.949219 367.921875 160.902344 C 368.359375 163.851562 368.722656 166.8125 369.015625 169.777344 C 369.308594 172.746094 369.527344 175.722656 369.671875 178.699219 C 369.820312 181.679688 369.894531 184.660156 369.894531 187.644531 Z M 369.894531 187.644531 " fill-opacity="1" fill-rule="nonzero"/></g><g clip-path="url(#dfda7f1099)"><path fill="#ffffff" d="M 167.910156 223.394531 C 167.910156 224.378906 167.816406 225.355469 167.621094 226.320312 C 167.429688 227.285156 167.144531 228.226562 166.769531 229.136719 C 166.390625 230.046875 165.929688 230.910156 165.382812 231.726562 C 164.835938 232.546875 164.214844 233.304688 163.519531 234 C 162.820312 234.699219 162.0625 235.320312 161.246094 235.867188 C 160.425781 236.414062 159.5625 236.875 158.652344 237.253906 C 157.742188 237.628906 156.804688 237.914062 155.835938 238.105469 C 154.871094 238.296875 153.894531 238.394531 152.910156 238.394531 C 151.925781 238.394531 150.949219 238.296875 149.984375 238.105469 C 149.019531 237.914062 148.082031 237.628906 147.171875 237.253906 C 146.261719 236.875 145.394531 236.414062 144.578125 235.867188 C 143.757812 235.320312 143 234.699219 142.304688 234 C 141.609375 233.304688 140.984375 232.546875 140.4375 231.726562 C 139.890625 230.910156 139.429688 230.046875 139.054688 229.136719 C 138.675781 228.226562 138.390625 227.285156 138.199219 226.320312 C 138.007812 225.355469 137.910156 224.378906 137.910156 223.394531 C 137.910156 222.410156 138.007812 221.433594 138.199219 220.46875 C 138.390625 219.503906 138.675781 218.5625 139.054688 217.65625 C 139.429688 216.746094 139.890625 215.878906 140.4375 215.0625 C 140.984375 214.242188 141.609375 213.484375 142.304688 212.789062 C 143 212.089844 143.757812 211.46875 144.578125 210.921875 C 145.394531 210.375 146.261719 209.914062 147.171875 209.535156 C 148.082031 209.160156 149.019531 208.875 149.984375 208.683594 C 150.949219 208.492188 151.925781 208.394531 152.910156 208.394531 C 153.894531 208.394531 154.871094 208.492188 155.835938 208.683594 C 156.804688 208.875 157.742188 209.160156 158.652344 209.535156 C 159.5625 209.914062 160.425781 210.375 161.246094 210.921875 C 162.0625 211.46875 162.820312 212.089844 163.519531 212.789062 C 164.214844 213.484375 164.835938 214.242188 165.382812 215.0625 C 165.929688 215.878906 166.390625 216.746094 166.769531 217.65625 C 167.144531 218.5625 167.429688 219.503906 167.621094 220.46875 C 167.816406 221.433594 167.910156 222.410156 167.910156 223.394531 Z M 167.910156 223.394531 " fill-opacity="1" fill-rule="nonzero"/></g><g fill="#ffffff" fill-opacity="1"><g transform="translate(149.549027, 243.588503)"><g><path d="M 6.664062 -62.878906 L 6.664062 -60.878906 C 6.664062 -57.324219 8.441406 -54.210938 11.554688 -51.769531 L 39.769531 -29.328125 L 67.988281 -6.886719 C 69.765625 -5.109375 72.433594 -4.222656 75.765625 -4.222656 C 79.097656 -4.222656 81.984375 -5.332031 84.652344 -7.554688 C 87.316406 -9.777344 88.652344 -12.886719 88.652344 -16.664062 C 88.652344 -20.664062 86.875 -24.21875 83.761719 -26.882812 L 61.324219 -44.660156 L 39.105469 -62.433594 L 61.324219 -80.207031 L 83.761719 -97.984375 C 86.875 -100.425781 88.652344 -103.761719 88.652344 -108.203125 C 88.652344 -111.757812 87.316406 -114.867188 84.652344 -117.089844 C 81.984375 -119.3125 79.097656 -120.644531 75.765625 -120.644531 C 72.433594 -120.644531 69.765625 -119.757812 67.988281 -117.980469 L 11.554688 -73.097656 C 8.222656 -70.433594 6.664062 -66.878906 6.664062 -62.878906 Z M 6.664062 -62.878906 "/></g></g></g></svg>